<svg width="198" height="44" viewBox="0 0 198 44" xmlns="http://www.w3.org/2000/svg" xmlns:xlink="http://www.w3.org/1999/xlink"><title>Page 1</title><defs><path id="a" d="M0 .429h197.554V44H0"/><path id="c" d="M0 .429h197.554V44H0"/><path id="e" d="M0 .429h197.554V44H0"/><path id="g" d="M0 .429h197.554V44H0"/></defs><g fill="none" fill-rule="evenodd"><path d="M89.534 9.29c-3.718 0-6.733 3.053-6.733 6.817 0 3.765 3.015 6.817 6.733 6.817 3.719 0 6.733-3.052 6.733-6.817 0-3.764-3.014-6.816-6.733-6.816m8.08 6.816c0 4.518-3.618 8.18-8.08 8.18s-8.08-3.662-8.08-8.18c0-4.517 3.618-8.18 8.08-8.18s8.08 3.663 8.08 8.18" fill="#FCB131"/><path d="M107.04 9.29c-3.719 0-6.733 3.053-6.733 6.817 0 3.765 3.014 6.817 6.733 6.817 3.718 0 6.733-3.052 6.733-6.817 0-3.764-3.015-6.816-6.733-6.816m8.08 6.816c0 4.518-3.618 8.18-8.08 8.18s-8.08-3.662-8.08-8.18c0-4.517 3.618-8.18 8.08-8.18s8.08 3.663 8.08 8.18" fill="#00A651"/><g><mask id="b" fill="#fff"><use xlink:href="#a"/></mask><path d="M80.781 1.792c-3.718 0-6.733 3.052-6.733 6.817s3.015 6.817 6.733 6.817c3.719 0 6.733-3.052 6.733-6.817S84.5 1.792 80.781 1.792m8.08 6.817c0 4.518-3.618 8.18-8.08 8.18s-8.079-3.662-8.079-8.18 3.618-8.18 8.08-8.18 8.079 3.662 8.079 8.18" fill="#0081C8" mask="url(#b)"/></g><g><mask id="d" fill="#fff"><use xlink:href="#c"/></mask><path d="M98.287 1.792c-3.718 0-6.733 3.052-6.733 6.817s3.015 6.817 6.733 6.817c3.719 0 6.733-3.052 6.733-6.817s-3.014-6.817-6.733-6.817m8.08 6.817c0 4.518-3.618 8.18-8.08 8.18s-8.08-3.662-8.08-8.18 3.618-8.18 8.08-8.18 8.08 3.662 8.08 8.18" fill="#000" mask="url(#d)"/></g><g><mask id="f" fill="#fff"><use xlink:href="#e"/></mask><path d="M115.793 1.792c-3.719 0-6.733 3.052-6.733 6.817s3.014 6.817 6.733 6.817c3.718 0 6.733-3.052 6.733-6.817s-3.015-6.817-6.733-6.817m8.08 6.817c0 4.518-3.618 8.18-8.08 8.18s-8.08-3.662-8.08-8.18 3.618-8.18 8.08-8.18 8.08 3.662 8.08 8.18" fill="#EE334E" mask="url(#f)"/></g><path d="M109.177 9.642a6.638 6.638 0 0 0-1.473-.318l-.092-.72.089-.65c.483.04.955.123 1.411.245l.065 1.443zm-10.19 7.146a8.514 8.514 0 0 1 .009-1.45l1.393-.3a6.986 6.986 0 0 0-.068 1.517l-.608.32-.725-.087z" fill="#00A651"/><path d="M91.716 9.657a6.634 6.634 0 0 0-1.575-.339l-.607-1.39a7.963 7.963 0 0 1 2.127.286l.055 1.443z" fill="#FCB131"/><path d="M113.96 38.465v-.001h-1.466a.354.354 0 0 0-.323.212c-.814 1.906-2.687 3.24-4.868 3.24-2.927 0-5.3-2.403-5.3-5.367 0-2.963 2.373-5.366 5.3-5.366 2.18 0 4.054 1.334 4.867 3.239a.354.354 0 0 0 .322.213h1.452a.357.357 0 0 0 .323-.498c-.99-2.93-3.734-5.038-6.964-5.038-4.064 0-7.359 3.336-7.359 7.45 0 4.115 3.295 7.45 7.36 7.45 3.23 0 5.973-2.107 6.963-5.037a.356.356 0 0 0-.306-.497M127.803 29.554a.364.364 0 0 0-.361-.366c-.017 0-.034.003-.05.005 0-.002-.002-.003-.003-.005h-1.277a.363.363 0 0 0-.35.343h-.003v5.831h-6.19v-5.794h-.001l.001-.014a.364.364 0 0 0-.35-.365h-1.332a.363.363 0 0 0-.36.34h-.001v14.034l.003.002c.02.183.172.327.358.327.007 0 .013-.002.02-.003v.003h1.293v-.001h.008a.363.363 0 0 0 .36-.342h.001v-5.994h6.19v6.016l.003.001a.365.365 0 0 0 .365.319h1.281v-.003c.012.001.022.004.034.004a.362.362 0 0 0 .357-.328h.004V29.554zM156.943 29.554a.364.364 0 0 0-.361-.366l-.02.002h-.001v-.002h-1.319v.001h-.02a.364.364 0 0 0-.362.363v10.061l-6.486-10.254h-.001a.362.362 0 0 0-.306-.17l-.024.002-.001-.003H146.545a.362.362 0 0 0-.358.327h-.004V43.54h.001c.009.195.166.35.36.35h1.361c.19 0 .343-.149.358-.337h.003V33.43l6.48 10.28c.06.104.17.176.298.18h.005l.008.002.007-.001h1.496v-.001l.022.002a.364.364 0 0 0 .361-.361V29.554zM172.026 29.554a.364.364 0 0 0-.361-.366l-.02.002-.001-.001h-1.34a.364.364 0 0 0-.36.363v10.061l-6.487-10.254h-.001a.362.362 0 0 0-.306-.17l-.024.002-.001-.003h-1.498a.362.362 0 0 0-.357.327h-.004V43.54h.001c.009.195.166.35.36.35h1.361c.19 0 .343-.149.358-.337h.003V33.43l6.48 10.28c.06.104.17.176.298.18h.005l.008.002.007-.001h1.496v-.002c.007 0 .014.003.022.003a.364.364 0 0 0 .36-.361h.001V29.554zM134.866 38.132l2.185-5.62 2.186 5.62h-4.37zm8.594 5.295l.002-.001-.013-.033-.005-.015-5.426-13.954a.36.36 0 0 0-.337-.236H136.413a.362.362 0 0 0-.33.243l-5.423 13.947-.006.015-.013.032h.002a.364.364 0 0 0 .347.466H132.384a.362.362 0 0 0 .347-.267l1.327-3.412h5.987l1.327 3.412a.361.361 0 0 0 .347.268l.005-.001H143.113a.364.364 0 0 0 .347-.464zM184.466 31.198v-.001h.001a.348.348 0 0 0 .346-.325h.002v-1.333a.349.349 0 0 0-.347-.35H176.288a.349.349 0 0 0-.34.35c0 .008.002.013.003.02h-.002v13.999l.002.001c.01.184.159.332.343.333h8.184v-.002a.349.349 0 0 0 .337-.35v-1.493a.35.35 0 0 0-.347-.35h-6.367v-4.254h6.199v-.001l.01.001a.349.349 0 0 0 .347-.35v-1.297-.011a.35.35 0 0 0-.347-.351H178.1v-4.236h6.365z" fill="#878787"/><g><mask id="h" fill="#fff"><use xlink:href="#g"/></mask><path d="M197.555 42.04a.342.342 0 0 0-.34-.343h-6.375v-12.16-.005a.341.341 0 0 0-.347-.343h-1.471a.34.34 0 0 0-.331.316h-.003V43.573h.002a.34.34 0 0 0 .332.319h8.162v-.003c.011.002.021.004.032.004a.34.34 0 0 0 .338-.331v-1.496-.024" fill="#878787" mask="url(#h)"/></g><path d="M7.444 40.556c-2.233 0-4.043-1.832-4.043-4.092s1.81-4.093 4.043-4.093c2.232 0 4.042 1.832 4.042 4.093 0 2.26-1.81 4.093-4.043 4.093m0-11.629C3.333 28.928 0 32.302 0 36.464c0 4.162 3.333 7.535 7.444 7.535 4.11 0 7.443-3.373 7.443-7.535s-3.332-7.536-7.444-7.536M26.938 40.75a.388.388 0 0 0-.386-.39H20.852V29.571h-.002l.002-.02a.388.388 0 0 0-.386-.39h-2.734a.388.388 0 0 0-.379.39l.002.015h-.001v13.838a.388.388 0 0 0 .385.389h8.813a.388.388 0 0 0 .386-.386v-2.651-.007M40.1 29.753a.39.39 0 0 0-.192-.566c0-.005 0-.01.003-.015-.009.002-.016.006-.024.009a.374.374 0 0 0-.116-.02c-.014 0-.026.002-.039.004h-3.07c-.013-.002-.025-.004-.039-.004a.383.383 0 0 0-.341.213l-3.013 4.868-3.004-4.856-.006.003a.385.385 0 0 0-.35-.228c-.014 0-.026.002-.039.004h-3.065c-.013-.002-.026-.004-.039-.004a.388.388 0 0 0-.369.499l-.003.002-.006.012.05.08.014.023 5.062 8.186v5.467h.001v.007c0 .216.172.391.385.391l.016-.001v.001h2.722a.389.389 0 0 0 .386-.39l-.002-.02h.002v-5.455l5.066-8.193.001-.001.01-.016zM79.756 32.015v-2.419h-.004c.002-.014.004-.027.004-.04a.388.388 0 0 0-.386-.39l-.028.002v-.003h-7.489a.388.388 0 0 0-.385.39l.001.016v2.428l-.001.016c0 .215.172.39.385.39h1.96v8.224h-1.96a.388.388 0 0 0-.385.39l.003.03h-.003v2.389c0 .215.172.39.385.39h7.533v-.001c.2-.015.36-.182.36-.39v-2.392l-.002-.001.002-.024a.388.388 0 0 0-.385-.39H77.434v-8.225h1.915v-.002l.021.002a.388.388 0 0 0 .386-.39M65.575 34.539c-.06.813-.576 1.424-1.311 1.538-.17.026-.345.023-.518.023-.584.003-1.168.001-1.8.001v-3.496c.856.043 1.702.013 2.522.147.747.122 1.172.915 1.107 1.787m-.714-5.259c-1.985-.197-4.014-.107-6.026-.113l-.018-.002a.388.388 0 0 0-.386.39c0 .011.002.021.003.031l-.003-.002v13.859c.003.21.169.379.376.385h2.692v-.003c.012.001.023.003.035.003a.388.388 0 0 0 .385-.386v-3.963c.753 0 1.424.017 2.094-.004 2.892-.09 4.727-1.831 5.017-4.745.271-2.72-1.5-5.185-4.169-5.45M55.31 29.556a.388.388 0 0 0-.385-.391l-.021.002v-.002H52.716v.001a.386.386 0 0 0-.326.215l-.005-.003-3.644 5.453-3.658-5.473-.003.002a.383.383 0 0 0-.332-.195l-.017.002v-.002h-2.165v.001h-.01a.388.388 0 0 0-.385.39v13.881a.388.388 0 0 0 .383.392h2.758l-.001-.001v-.003c.012 0 .023.003.035.003a.387.387 0 0 0 .386-.387v-6.915l1.92 2.995v-.002c.068.114.19.19.33.19l.013-.001v.002h1.482v-.002l.02.002c.14 0 .261-.076.329-.188h.003l1.92-2.996v6.912c0 .209.163.378.367.388v.004H54.9v-.004l.025.002a.388.388 0 0 0 .385-.384V29.578h-.001l.002-.022M96.286 38.623a.384.384 0 0 0-.344-.216h-2.904a.382.382 0 0 0-.323.179c-.709 1.18-1.983 1.97-3.447 1.97-2.232 0-4.042-1.832-4.042-4.092s1.81-4.093 4.042-4.093c1.488 0 2.783.817 3.484 2.03l.008.014c.07.102.186.17.318.17h2.883a.387.387 0 0 0 .343-.563c-1.002-2.962-3.77-5.094-7.036-5.094-4.11 0-7.443 3.374-7.443 7.536 0 4.162 3.333 7.536 7.443 7.536 3.242 0 5.994-2.1 7.016-5.027a.387.387 0 0 0 .036-.245 4.286 4.286 0 0 0-.034-.105" fill="#878787"/></g></svg>